<svg width="664" height="664" viewBox="0 0 664 664" fill="none" xmlns="http://www.w3.org/2000/svg">
<path d="M304.268 1.54909C284.401 4.88242 259.868 14.4824 246.134 24.2157C228.268 37.149 87.2009 152.349 51.0676 183.682C28.5343 203.282 14.2676 225.149 4.53428 255.149L0.00095047 269.282V437.949C0.00095047 623.282 -0.265717 617.149 8.13428 632.749C16.2676 648.082 32.5343 659.282 50.6676 661.949C62.5343 663.682 601.734 663.682 613.334 661.949C639.468 657.949 658.534 638.616 662.534 611.949C664.401 599.816 664.401 322.082 662.668 288.082C661.201 261.682 658.934 251.016 651.468 234.749C643.068 216.482 629.601 198.482 614.934 185.549C597.868 170.616 516.401 103.149 481.334 74.749C471.468 66.749 458.801 56.6157 453.334 52.0824C434.001 36.3491 415.201 22.3491 408.001 18.3491C397.201 12.3491 381.468 6.4824 367.601 3.14907C352.934 -0.184268 319.868 -1.11758 304.268 1.54909ZM347.734 434.882C356.401 439.149 363.468 447.282 366.001 455.949C368.934 465.682 368.934 571.816 366.001 581.682C361.601 596.616 350.401 605.816 335.334 607.149C323.201 608.082 315.868 605.682 307.334 597.816C295.068 586.616 295.468 589.149 295.868 518.749C296.268 450.082 296.001 451.416 306.001 441.416C313.334 434.216 320.268 431.416 331.468 431.416C338.934 431.416 342.268 432.082 347.734 434.882Z" fill="#B6C5DA"/>
</svg>
