<svg width="683" height="683" viewBox="0 0 683 683" fill="none" xmlns="http://www.w3.org/2000/svg">
<path d="M205.733 85.3335C157.067 91.4668 116.267 109.6 86.5334 138.267C60.6667 163.2 45.6 194.934 43.2 229.867C41.2 258.134 50.9334 290.4 68.5334 314.4C71.8667 318.934 74.6667 323.067 74.6667 323.6C74.6667 324 68.6667 339.733 61.3334 358.267C54 376.8 48 393.733 48 395.733C48 400.533 52.9334 405.333 58 405.333C60 405.333 81.6 398.8 105.867 390.8C144.4 378 150.8 376.267 156.267 376.933C161.733 377.6 162.933 377.2 165.867 374.267C169.733 370.4 170.4 364.8 167.467 360.533C166.4 359.067 162.4 356.8 158.4 355.467L151.333 353.2L114.667 365.2C94.5334 371.733 77.8667 376.933 77.6 376.667C77.3334 376.4 82 363.867 88 348.8C95.6 329.334 98.5334 320.4 97.8667 318.267C97.3334 316.667 94.9334 313.067 92.4 310.267C89.8667 307.334 85.2 301.067 82.1334 296.267C59.8667 261.2 58.4 221.734 78.1334 184.134C104.267 133.734 170.133 102.4 242.533 105.734C302.267 108.667 352 134 378.667 175.334C388.933 191.067 389.733 192 395.333 192C401.333 192 405.333 188.134 405.333 182.267C405.333 173.6 388.933 149.867 371.733 134C346 110.134 313.2 94.8002 271.333 87.0668C258.4 84.8002 219.067 83.7335 205.733 85.3335Z" fill="#B6C5DA"/>
<path d="M205.733 85.3335C157.067 91.4668 116.267 109.6 86.5334 138.267C60.6667 163.2 45.6 194.934 43.2 229.867C41.2 258.134 50.9334 290.4 68.5334 314.4C71.8667 318.934 74.6667 323.067 74.6667 323.6C74.6667 324 68.6667 339.733 61.3334 358.267C54 376.8 48 393.733 48 395.733C48 400.533 52.9334 405.333 58 405.333C60 405.333 81.6 398.8 105.867 390.8C144.4 378 150.8 376.267 156.267 376.933C161.733 377.6 162.933 377.2 165.867 374.267C169.733 370.4 170.4 364.8 167.467 360.533C166.4 359.067 162.4 356.8 158.4 355.467L151.333 353.2L114.667 365.2C94.5334 371.733 77.8667 376.933 77.6 376.667C77.3334 376.4 82 363.867 88 348.8C95.6 329.334 98.5334 320.4 97.8667 318.267C97.3334 316.667 94.9334 313.067 92.4 310.267C89.8667 307.334 85.2 301.067 82.1334 296.267C59.8667 261.2 58.4 221.734 78.1334 184.134C104.267 133.734 170.133 102.4 242.533 105.734C302.267 108.667 352 134 378.667 175.334C388.933 191.067 389.733 192 395.333 192C401.333 192 405.333 188.134 405.333 182.267C405.333 173.6 388.933 149.867 371.733 134C346 110.134 313.2 94.8002 271.333 87.0668C258.4 84.8002 219.067 83.7335 205.733 85.3335Z" stroke="black"/>
<path d="M389.333 214.8C279.733 226.8 204.4 287.2 191.067 374C188.667 390.267 189.467 414 193.2 430.667C208.267 498.134 264.533 549.734 345.2 570C396.667 582.934 448.8 581.734 497.2 566.4L510.8 562.134L566.4 580.534C596.933 590.534 623.067 598.8 624.4 598.667C628 598.667 633.333 592.667 633.333 588.534C633.333 586.534 626.533 567.467 618.133 546.134C609.733 524.8 602.267 505.734 601.467 503.867C600.4 500.8 600.933 499.334 606.533 491.867C649.333 434.8 650.8 366.8 610.8 308.267C578.533 261.067 524 227.867 460.667 216.534C446.267 214 405.467 212.934 389.333 214.8ZM449.867 238C519.2 247.067 575.333 281.867 600.933 331.334C621.867 372 623.467 414.267 605.6 452.4C599.067 466.4 593.067 475.867 584.267 485.867C579.733 491.067 577.333 494.934 577.333 497.2C577.333 499.2 583.333 516 590.667 534.667C598 553.334 604 569.067 604 569.467C604 570 583.2 563.467 557.867 555.067L511.733 539.734L495.6 545.2C468.667 554 456.4 556.134 425.333 556.934C394.4 557.734 376.933 556 351.467 549.334C276.267 529.867 224.4 482.134 211.867 420.667C209.733 410.134 209.733 388.4 211.867 376C217.467 344.534 231.467 317.867 254.667 294.667C284.533 264.8 327.733 244.8 376.933 238C395.067 235.6 431.2 235.6 449.867 238Z" fill="#B6C5DA"/>
<path d="M274.667 359.867C258.533 364.8 248 379.067 248 396C248 435.067 300.133 447.6 318.4 412.8C323.467 403.2 323.467 389.067 318.267 379.2C314 370.8 305.867 363.467 297.6 360.8C291.2 358.534 280.4 358.134 274.667 359.867ZM295.733 384.534C300.267 388.667 300.667 389.734 300.667 396C300.667 402.267 300.267 403.334 295.733 407.467C290.133 412.534 284 413.467 277.333 410C271.867 407.2 269.333 402.934 269.333 396.267C269.333 389.067 270.933 385.867 276.4 382.667C283.2 378.534 289.867 379.2 295.733 384.534Z" fill="#B6C5DA"/>
<path d="M397.6 362.8C383.733 369.6 376.8 380.8 376.933 396C376.933 411.333 383.867 422.4 397.6 429.2C408.933 434.933 419.067 434.933 430.4 429.2C444.133 422.4 451.2 411.2 451.2 396C451.2 380.8 444.133 369.6 430.4 362.8C419.067 357.067 408.933 357.067 397.6 362.8ZM424.667 384C431.867 390.8 431.733 401.333 424.533 408.133C419.6 412.667 408.4 412.667 403.467 408.133C398.667 403.6 396.8 397.2 398.667 391.467C400.133 387.067 404.133 382.4 408 380.933C412.133 379.2 421.467 381.067 424.667 384Z" fill="#B6C5DA"/>
<path d="M531.2 360.267C523.867 362.667 514.533 370.934 510.133 378.667C502 393.2 505.867 413.467 518.933 424.534C538.8 441.6 571.733 432 578.8 407.067C580.8 399.6 579.867 386 576.667 379.467C573.467 372.8 566.8 366.134 559.6 362.4C553.2 359.2 537.867 357.867 531.2 360.267ZM550.667 382C556.267 384.934 558.667 389.067 558.667 396C558.667 405.734 552.133 412 541.867 412C533.2 412 525.067 401.2 527.333 392.4C527.733 390.534 530.133 386.934 532.667 384.4C537.6 379.467 544 378.534 550.667 382Z" fill="#B6C5DA"/>
</svg>
