<svg width="683" height="683" viewBox="0 0 683 683" fill="none" xmlns="http://www.w3.org/2000/svg">
<g clip-path="url(#clip0_238_25)">
<path d="M257.333 1.46657C191.467 8.26657 130.533 37.3332 83.2 84.5332C50.4 117.333 28.2667 153.067 14.1333 196C-4.66668 253.067 -4.66668 312.267 14.1333 369.333C28.2667 412.4 50.5333 448.267 83.4667 480.933C148.533 545.6 237.2 574.933 328.667 562C375.733 555.333 422.933 536 460 508.133C464 505.067 467.6 502.8 468.133 502.933C468.667 503.2 509.067 542.667 557.867 590.667C613.467 645.333 648.533 678.8 651.733 680.267C664.8 686.4 679.467 678.667 682.133 664.267C684.267 653.067 691.733 661.067 545.6 516.8L500 471.733L507.733 462.667C541.067 424.133 563.067 375.333 571.467 322C574.667 301.2 574.667 263.067 571.467 242C562 180.8 535.2 128.267 490.533 83.8666C429.2 22.9332 343.733 -7.33343 257.333 1.46657ZM321.2 46.1332C375.067 53.9999 422.4 77.4666 459.867 114.8C505.733 160.8 529.6 218 529.6 282.667C529.6 306.533 527.467 322.933 521.867 343.6C493.6 448.667 397.733 521.333 287.333 521.333C221.6 521.333 160.533 496.4 114.933 450.8C84 419.867 63.3333 384.133 52.1333 342.667C42.2667 305.733 42.2667 259.6 52.1333 222.667C74.5333 139.2 140.8 73.4666 224.4 51.8666C254.8 43.9999 292 41.7332 321.2 46.1332Z" fill="#B6C5DA"/>
</g>
<defs>
<clipPath id="clip0_238_25">
<rect width="682.667" height="682.667" fill="white"/>
</clipPath>
</defs>
</svg>
