<svg width="683" height="683" viewBox="0 0 683 683" fill="none" xmlns="http://www.w3.org/2000/svg">
<path d="M313.2 37.9999C266.933 46.7999 227.467 73.4665 202.933 112.533C170.8 163.6 169.6 228.133 199.733 280.533C233.2 338.667 299.467 370.667 365.733 360.667C429.733 351.067 483.067 303.067 499.333 240.533C511.2 194.667 503.333 147.733 476.933 108.267C454.133 74.1332 421.333 51.1999 380.133 40.3999C364 36.1332 329.467 34.9332 313.2 37.9999ZM371.333 81.8665C406.667 91.5999 435.333 115.733 450.667 148.4C458.667 165.467 461.733 180 461.733 200C461.6 217.733 459.333 229.2 452.8 245.333C439.333 278.933 407.6 306.533 371.333 316.267C356 320.4 326.533 320.267 311.333 316.133C274.8 306.267 243.333 278.933 229.867 245.333C223.333 229.2 221.067 217.733 220.933 200C220.8 167.6 231.733 139.6 253.2 116.8C270.8 98.2665 293.067 85.7332 317.333 80.5332C328.933 78.1332 360.4 78.9332 371.333 81.8665Z" fill="#B6C5DA"/>
<path d="M318 406.133C315.867 406.4 308.267 407.333 301.333 408.133C262 412.533 216.267 428.267 183.067 449.067C135.467 478.533 100.8 520.667 85.4667 567.6C76 596.133 73.2 629.333 79.3334 637.6C83.3334 642.933 90.8 646.667 97.6 646.667C110 646.667 118.667 635.867 118.667 620.533C118.667 601.867 126.4 573.467 136.4 555.733C158.4 516.533 195.467 485.333 241.867 466.933C320.933 435.6 415.733 444.267 483.333 489.067C531.733 521.067 560.133 566.133 563.733 616.8C564.533 627.733 565.6 632.8 567.467 636.133C575.6 650 595.333 650.4 603.333 636.667C607.333 629.867 607.733 618.933 604.533 597.6C590 499.333 494.267 420 374.933 407.333C358.533 405.6 328.533 404.933 318 406.133Z" fill="#B6C5DA"/>
</svg>
